<?xml version="1.0" encoding="UTF-8" standalone="no"?>
<svg
   xml:space="preserve"
   width="575.30603"
   height="903.71997"
   style="clip-rule:evenodd;fill-rule:evenodd;stroke-linejoin:round;stroke-miterlimit:2"
   viewBox="663.38 37.57 575.306 903.72"
   version="1.1"
   id="svg5"
   sodipodi:docname="helix_no_text.svg"
   inkscape:version="1.3.2 (1:1.3.2+202311252150+091e20ef0f)"
   xmlns:inkscape="http://www.inkscape.org/namespaces/inkscape"
   xmlns:sodipodi="http://sodipodi.sourceforge.net/DTD/sodipodi-0.dtd"
   xmlns="http://www.w3.org/2000/svg"
   xmlns:svg="http://www.w3.org/2000/svg"><sodipodi:namedview
     id="namedview5"
     pagecolor="#505050"
     bordercolor="#ffffff"
     borderopacity="1"
     inkscape:showpageshadow="0"
     inkscape:pageopacity="0"
     inkscape:pagecheckerboard="1"
     inkscape:deskcolor="#d1d1d1"
     inkscape:zoom="0.40584452"
     inkscape:cx="1043.5031"
     inkscape:cy="450.91159"
     inkscape:window-width="1850"
     inkscape:window-height="1016"
     inkscape:window-x="1990"
     inkscape:window-y="27"
     inkscape:window-maximized="1"
     inkscape:current-layer="svg5" /><defs
     id="defs1"><path
       id="c"
       d="M 713.026,-304.325 H 4328.26 V 1560.429 H 713.026 Z" /><path
       id="b"
       d="M 972.073,151.159 H 3113.038 V 836.022 H 972.073 Z" /><path
       id="a"
       d="m 661.302,48.088 h 769.156 V 876.556 H 661.302 Z" /></defs><path
     d="m 663.381,37.57 551.48,318.4 a 47.66,47.66 0 0 1 23.82,41.27 v 105.94 c 0,8.51 -2.27,16.7 -6.38,23.83 0,0 -437.8,-252.76 -545.3,-314.83 a 47.245,47.245 0 0 1 -23.62,-40.92 z"
     style="fill:#706bc8"
     id="path1" /><path
     d="m 1215.061,766.69 a 47.228,47.228 0 0 1 23.62,40.91 V 941.29 L 687.211,622.9 a 47.66,47.66 0 0 1 -23.83,-41.27 V 475.69 c 0,-8.52 2.27,-16.71 6.38,-23.83 0,0 437.8,252.76 545.3,314.83"
     style="fill:#55c5e4"
     id="path2" /><path
     d="m 716.443,578.506 a 35.033,35.033 0 0 0 -12.898,12.9 c -9.647,16.7 -4.036,38.3 12.495,48.13 h -0.006 l -28.825,-16.64 a 47.644,47.644 0 0 1 -23.829,-41.27 v -105.94 c 0,-17.03 9.083,-32.76 23.829,-41.27 l 498.417,-287.73 0.24,-0.14 a 34.962,34.962 0 0 0 12.65,-12.756 c 9.65,-16.708 4.04,-38.3 -12.49,-48.137 h 0.01 l 28.82,16.642 a 47.648,47.648 0 0 1 23.83,41.273 v 105.938 c 0,17.03 -9.08,32.76 -23.83,41.27 l -29.63,17.11 0.4,-0.26 z"
     style="fill:#84ddea"
     id="path3" /><path
     d="m 716.443,832.186 a 35.08,35.08 0 0 0 -12.898,12.89 c -9.647,16.71 -4.036,38.3 12.495,48.14 h -0.006 l -28.825,-16.64 a 47.656,47.656 0 0 1 -23.829,-41.27 v -105.94 c 0,-17.03 9.083,-32.76 23.829,-41.27 l 498.417,-287.73 0.24,-0.14 c 5.09,-2.99 9.5,-7.29 12.65,-12.76 9.65,-16.71 4.04,-38.3 -12.49,-48.14 h 0.01 l 28.82,16.65 a 47.636,47.636 0 0 1 23.83,41.27 v 105.94 c 0,17.02 -9.08,32.76 -23.83,41.27 l -29.63,17.1 0.4,-0.25 z"
     style="fill:#997bc8"
     id="path4" /></svg>
